# xmcd
#
# Track frame offsets:
#	187
#	10177
#	20762
#	33480
#	45872
#	56547
#	71600
#	82287
#	92425
#	103320
#	112572
#	126942
#	140327
#	152182
#	163035
#	176400
#	189740
#	200582
#	212732
#	223932
#
# Disc length: 3147 seconds
# Revision: 0
# Processed by: cddbd v1.5.2PL0 Copyright (c) Steve Scherf et al.
# Submitted via: dBpowerAMP V12.0
#
DISCID=1c0c4914
DTITLE=Various Artist - ジャンバラヤ　ベスト・オブ・カントリー・ミュージック
DYEAR=1900
DGENRE=Country
TTITLE0=ジョージ・ジョーンズ - ジャンバラヤ
TTITLE1=ジョージ・ジョーンズ - ヘイ・ク゜ッド・ルッキン
TTITLE2=ショニー・ロドリゲス - 知りたくないの
TTITLE3=ファロン・ヤング - 愛さずにはいられない 
TTITLE4=ショニー・ロドリゲス - リリース・ミー
TTITLE5=ジョージ・ジョーンズ - コールド・コールド・ハート
TTITLE6=デイヴ・ダットレー - オー・ロンサム・ミー
TTITLE7=ジョージ・ジョーンズ - アイ・ウォーク・ザ・ライン
TTITLE8=ピート・ドレイク - スティール・ギター・ラグ
TTITLE9=ザ・シャディ・オーク・ボーイズ - ユー・アーマイ・サンシャイン
TTITLE10=ロジャー・ミラー - 想い出のグリーン・グラス 
TTITLE11=ファロン・ヤング - ジェントル・オン・マイ・マインド
TTITLE12=ロジャー・ミラー - 恋はフェニックス
TTITLE13=ジェリー・リー・ルイス&リンダ・ゲイル・ルイス - ジャクソン
TTITLE14=ロジャー・ミラー - 二人の青い鳥
TTITLE15=ファロン・ヤング - サンアントニオ・ローズ
TTITLE16=ザ・スタンレイ・ブラザーズ - 母上の思い出
TTITLE17=レスタ－・フラット&アール・スクラッグス - フォギー・マウテン・ブレイク・タウン
TTITLE18=ザ・スタンレイ・ブラザーズ - オレンジ・ブロッサム・スペッシャル
TTITLE19=レスター・フラット&アール・スクラッグス - また逢う日まで
EXTD=
EXTT0=
EXTT1=
EXTT2=
EXTT3=
EXTT4=
EXTT5=
EXTT6=
EXTT7=
EXTT8=
EXTT9=
EXTT10=
EXTT11=
EXTT12=
EXTT13=
EXTT14=
EXTT15=
EXTT16=
EXTT17=
EXTT18=
EXTT19=
PLAYORDER=
